# AST/ASF file generated using VICON BodyLanguage
# -----------------------------------------------
:version 1.10
:name VICON
:units
  mass 1.0
  length 0.45
  angle deg
:documentation
   .ast/.asf automatically generated from VICON data using
   VICON BodyBuilder and BodyLanguage model FoxedUp or BRILLIANT.MOD
:root
   order TX TY TZ RX RY RZ
   axis XYZ
   position 0 0 0  
   orientation 0 0 0 
:bonedata
  begin
     id 1 
     name lhipjoint
     direction 0.78388 -0.462562 0.414208 
     length 3.01181 
     axis 0 0 0  XYZ
  end
  begin
     id 2 
     name lfemur
     direction 0.34202 -0.939693 0  
     length 6.04673  
     axis 0 0 20  XYZ
    dof rx ry rz
    limits (-160.0 20.0)
           (-70.0 70.0)
           (-60.0 70.0)
  end
  begin
     id 3 
     name ltibia
     direction 0.34202 -0.939693 0   
     length 7.211   
     axis 0 0 20   XYZ
    dof rx
    limits (-10.0 170.0)
  end
  begin
     id 4 
     name lfoot
     direction 0.121887 -0.334882 0.934344   
     length 2.13567   
     axis -90 7.62852e-016 20   XYZ
    dof rx rz
    limits (-45.0 90.0)
           (-70.0 20.0)
  end
  begin
     id 5 
     name ltoes
     direction 1.53555e-011 -4.2179e-011 1   
     length 1.05957   
     axis -90 7.62852e-016 20   XYZ
    dof rx
    limits (-90.0 20.0)
  end
  begin
     id 6 
     name rhipjoint
     direction -0.769387 -0.475875 0.426129   
     length 2.92756  
     axis 0 0 0  XYZ 
  end
  begin
     id 7 
     name rfemur
     direction -0.34202 -0.939693 0   
     length 6.35468   
     axis 0 0 -20   XYZ
    dof rx ry rz
    limits (-160.0 20.0)
           (-70.0 70.0)
           (-70.0 60.0)
  end
  begin
     id 8 
     name rtibia
     direction -0.34202 -0.939693 0   
     length 7.37886   
     axis 0 0 -20   XYZ
    dof rx
    limits (-10.0 170.0)
 end
 begin
     id 9 
     name rfoot
     direction -0.101763 -0.279592 0.954711   
     length 2.21478  
     axis -90 -7.62852e-016 -20   XYZ
    dof rx rz
    limits (-45.0 90.0)
           (-20.0 70.0)
  end
  begin
     id 10 
     name rtoes
     direction -1.53494e-011 -4.21851e-011 1   
     length 1.10506   
     axis -90 -7.62852e-016 -20   XYZ
    dof rx
    limits (-90.0 20.0)
  end
  begin
     id 11 
     name lowerback
     direction 0.00747405 0.999267 0.0375481   
     length 2.13259   
     axis 0 0 0   XYZ
    dof rx ry rz
    limits (-20.0 45.0)
           (-30.0 30.0)
           (-30.0 30.0)
  end
  begin
     id 12 
     name upperback
     direction 0.00661626 0.996177 0.0871029   
     length 2.10528   
     axis 0 0 0   XYZ
    dof rx ry rz
    limits (-20.0 45.0)
           (-30.0 30.0)
           (-30.0 30.0)
  end
  begin
     id 13 
     name thorax
     direction 0.00320659 0.997679 0.0680167   
     length 2.11338   
     axis 0 0 0   XYZ
    dof rx ry rz
    limits (-20.0 45.0)
           (-30.0 30.0)
           (-30.0 30.0)
  end
  begin
     id 14 
     name lowerneck
     direction 0.0374841 0.973033 0.227602   
     length 1.42765   
     axis 0 0 0   XYZ
    dof rx ry rz
    limits (-20.0 45.0)
           (-30.0 30.0)
           (-30.0 30.0)
  end
  begin
     id 15 
     name upperneck
     direction 0.00481585 0.989155 -0.146795   
     length 1.47593   
     axis 0 0 0   XYZ
    dof rx ry rz
    limits (-20.0 45.0)
           (-30.0 30.0)
           (-30.0 30.0)
  end
  begin
     id 16
     name head
     direction -0.00292522 0.997206 -0.0746423  
     length 1.48116  
     axis 0 0 0   XYZ
    dof rx ry rz
    limits (-20.0 45.0)
           (-30.0 30.0)
           (-30.0 30.0)
  end
  begin
     id 17 
     name lclavicle
     direction 0.951444 0.305606 0.0368784  
     length 3.01855  
     axis 0 0 0   XYZ
    dof ry rz
    limits (-20.0 10.0)
           (0.0 20.0)
  end
  begin
     id 18 
     name lhumerus
     direction 1 -4.48977e-011 2.61664e-027   
     length 5.52731   
     axis 180 -30 -90   XYZ
    dof rx ry rz
    limits (-60.0 90.0)
           (-90.0 90.0)
           (-90.0 90.0)
  end
  begin
     id 19
     name lradius
     direction 1 -4.48944e-011 8.22157e-027   
     length 3.11059   
     axis 180 -30 -90   XYZ
    dof rx
    limits (-10.0 170.0)
  end
  begin
     id 20
     name lwrist
     direction 1 -4.48976e-011 1.5779e-026   
     length 1.5553   
     axis -1.15221e-014 90 90   XYZ
    dof ry
    limits (-180.0 0.0)
 end
  begin
     id 21 
     name lhand
     direction 1 -4.49025e-011 3.1558e-026   
     length 0.419626   
     axis -2.01367e-014 90 90   XYZ
    dof rx rz
    limits (-90.0 90.0)
           (-45.0 45.0)
  end
  begin
     id 22 
     name lfingers
     direction 1 -4.4904e-011 6.31161e-026   
     length 0.338313   
     axis -4.02734e-014 90 90   XYZ
    dof rx
    limits (0.0 90.0)
  end
  begin
     id 23
     name lthumb
     direction 0.707107 -6.35004e-011 0.707107   
     length 0.485752   
     axis -90 45 2.85299e-015   XYZ
    dof rx rz
    limits (-45.0 45.0)
           (-45.0 45.0)
  end
  begin
     id 24 
     name rclavicle
     direction -0.968876 0.223791 0.105816   
     length 3.04177  
     axis 0 0 0   XYZ 
    dof ry rz
    limits (-10.0 20.0)
           (-20.0 0.0)
  end
  begin
     id 25 
     name rhumerus
     direction -1 -4.48962e-011 -1.01384e-027  
     length 5.25396   
     axis 180 30 90   XYZ
    dof rx ry rz
    limits (-90.0 60.0)
           (-90.0 90.0)
           (-90.0 90.0)
  end
  begin
     id 26 
     name rradius
     direction -1 -4.48955e-011 8.88542e-027   
     length 3.10567   
     axis 180 30 90   XYZ
    dof rx
    limits (-10.0 170.0)
  end
  begin
     id 27 
     name rwrist
     direction -1 -4.48994e-011 1.5779e-026   
     length 1.55283   
     axis -1.15221e-014 -90 -90   XYZ
    dof ry
    limits (-180.0 0.0)
  end
  begin
     id 28
     name rhand
     direction -1 -4.48891e-011 3.1558e-026   
     length 0.498676   
     axis -2.01367e-014 -90 -90   XYZ
    dof rx rz
    limits (-90.0 90.0)
           (-45.0 45.0)
  end
  begin
     id 29
     name rfingers
     direction -1 -4.48972e-011 6.31161e-026   
     length 0.402045   
     axis -4.02734e-014 -90 -90   XYZ
    dof rx
    limits (0.0 90.0)
  end
  begin
     id 30
     name rthumb
     direction -0.707107 -6.34849e-011 0.707107   
     length 0.577259   
     axis -90 -45 -2.85299e-015   XYZ
    dof rx rz
    limits (-45.0 45.0)
           (-45.0 45.0)
  end
:hierarchy
  begin
    root lhipjoint rhipjoint lowerback
    lhipjoint lfemur
    lfemur ltibia
    ltibia lfoot
    lfoot ltoes
    rhipjoint rfemur
    rfemur rtibia
    rtibia rfoot
    rfoot rtoes
    lowerback upperback
    upperback thorax
    thorax lowerneck lclavicle rclavicle
    lowerneck upperneck
    upperneck head
    lclavicle lhumerus
    lhumerus lradius
    lradius lwrist
    lwrist lhand lthumb
    lhand lfingers
    rclavicle rhumerus
    rhumerus rradius
    rradius rwrist
    rwrist rhand rthumb
    rhand rfingers
  end

#!OML:ASF H:\Pregnant\Project 1\Capture day 1\Session 1\femalepreg.ASF
:FULLY-SPECIFIED
:DEGREES
18
root 7.22187 15.764 25.0165 22.4277 -83.7694 -4.65106
lowerback -22.083 0.742577 -1.21021
upperback -7.00011 0.800375 -0.584791
thorax 4.67184 0.193507 0.249466
lowerneck -26.0316 1.79987 3.00491
upperneck 29.9394 -0.596618 4.31916
head 14.788 0.637622 1.13073
rclavicle -2.63887e-014 -7.95139e-015
rhumerus 1.68594 -44.2325 -49.466
rradius 128.586
rwrist -32.6349
rhand -60.909 -5.13189
rfingers 7.12502
rthumb -33.0168 -32.1286
lclavicle -2.63887e-014 -7.95139e-015
lhumerus -42.4395 -14.5241 90.4773
lradius 30.7589
lwrist 42.1973
lhand -27.2843 -4.27526
lfingers 7.12502
lthumb -0.694714 25.7034
rfemur -23.8565 21.9602 12.2464
rtibia 25.6237
rfoot -15.4901 -23.895
rtoes -7.85539
lfemur 0 0 0
ltibia 0
lfoot 0 0
ltoes 0
19
root 7.22218 15.7648 25.0169 22.4212 -83.7832 -4.60578
lowerback -22.0881 0.738903 -1.23198
upperback -7.02676 0.796616 -0.566748
thorax 4.64488 0.191176 0.280183
lowerneck -26.0401 1.82278 3.01825
upperneck 30.0014 -0.560142 4.28073
head 14.8169 0.649566 1.12117
rclavicle -4.94477e-015 -7.15625e-015
rhumerus 2.04547 -45.1103 -49.8935
rradius 128.962
rwrist -38.5921
rhand -61.4218 -9.54702
rfingers 7.12502
rthumb -33.5043 -36.4394
lclavicle -4.94477e-015 -7.15625e-015
lhumerus -42.5021 -14.6482 90.653
lradius 30.6836
lwrist 42.1787
lhand -27.2421 -4.22284
lfingers 7.12502
lthumb -0.653932 25.7559
rfemur -23.9106 21.9706 12.2148
rtibia 25.6296
rfoot -15.4868 -23.8998
rtoes -7.85632
lfemur 0 0 0
ltibia 0
lfoot 0 0
ltoes 0
20
root 7.22245 15.7654 25.0172 22.4106 -83.7969 -4.56248
lowerback -22.0886 0.742109 -1.24242
upperback -7.05362 0.800074 -0.559488
thorax 4.61567 0.192318 0.294666
lowerneck -26.0427 1.84348 3.04106
upperneck 30.0615 -0.530304 4.24087
head 14.8438 0.659429 1.10795
rclavicle -1.11568e-014 1.11319e-014
rhumerus 2.3373 -45.9327 -50.2749
rradius 129.22
rwrist -43.6198
rhand -61.7803 -13.7273
rfingers 7.12502
rthumb -33.845 -40.5453
lclavicle -1.11568e-014 1.11319e-014
lhumerus -42.5366 -14.7103 90.7759
lradius 30.5705
lwrist 42.0459
lhand -27.1919 -4.18777
lfingers 7.12502
lthumb -0.6054 25.7911
rfemur -23.9575 21.9744 12.1872
rtibia 25.636
rfoot -15.4859 -23.8955
rtoes -7.85452
lfemur 0 0 0
ltibia 0
lfoot 0 0
ltoes 0
21
root 7.22275 15.7658 25.0176 22.4142 -83.8068 -4.53789
lowerback -22.0848 0.747299 -1.24313
upperback -7.08168 0.804159 -0.555587
thorax 4.58318 0.193734 0.300112
lowerneck -26.0385 1.86331 3.06417
upperneck 30.1208 -0.501449 4.20082
head 14.869 0.668725 1.09426
rclavicle 1.00883e-014 -5.96354e-016
rhumerus 2.53995 -46.5996 -50.5831
rradius 129.35
rwrist -47.3907
rhand -61.9232 -17.5045
rfingers 7.12502
rthumb -33.9807 -44.2925
lclavicle 1.00883e-014 -5.96354e-016
lhumerus -42.6129 -14.8667 90.9456
lradius 30.5086
lwrist 42.0021
lhand -27.1629 -4.14039
lfingers 7.12502
lthumb -0.577444 25.8386
rfemur -23.9972 21.9753 12.1657
rtibia 25.6401
rfoot -15.4876 -23.8876
rtoes -7.8367
lfemur 0 0 0
ltibia 0
lfoot 0 0
ltoes 0
22
root 7.22309 15.7662 25.0181 22.445 -83.8131 -4.54626
lowerback -22.0757 0.755342 -1.23135
upperback -7.10987 0.809684 -0.557633
thorax 4.54819 0.195813 0.292388
lowerneck -26.0309 1.88383 3.09778
upperneck 30.1801 -0.475351 4.15833
head 14.8937 0.677639 1.07715
rclavicle -6.38596e-015 1.13307e-014
rhumerus 2.61704 -47.0315 -50.7949
rradius 129.351
rwrist -49.6948
rhand -61.8191 -20.5708
rfingers 7.12502
rthumb -33.8818 -47.3807
lclavicle -6.38596e-015 1.13307e-014
lhumerus -42.6677 -14.9659 91.0694
lradius 30.4214
lwrist 41.8748
lhand -27.122 -4.11146
lfingers 7.12502
lthumb -0.537919 25.8676
rfemur -24.0271 21.9712 12.1524
rtibia 25.6403
rfoot -15.4863 -23.8773
rtoes -7.83088
lfemur 0 0 0
ltibia 0
lfoot 0 0
ltoes 0
23
root 7.22351 15.7665 25.0185 22.5207 -83.8159 -4.6017
lowerback -22.0657 0.748387 -1.22828
upperback -7.13743 0.795949 -0.533097
thorax 4.51311 0.188723 0.313281
lowerneck -26.0197 1.91178 3.10892
upperneck 30.2408 -0.42372 4.10509
head 14.9175 0.693127 1.06448
rclavicle 2.68359e-015 -1.23246e-014
rhumerus 2.60615 -47.124 -50.8939
rradius 129.213
rwrist -50.4212
rhand -61.425 -22.7157
rfingers 7.12502
rthumb -33.5074 -49.6074
lclavicle 2.68359e-015 -1.23246e-014
lhumerus -42.7354 -15.0393 91.2211
lradius 30.3609
lwrist 41.7907
lhand -27.034 -4.07085
lfingers 7.12502
lthumb -0.452966 25.9084
rfemur -24.0519 21.9928 12.1421
rtibia 25.6355
rfoot -15.4798 -23.8944
rtoes -7.82427
lfemur 0 0 0
ltibia 0
lfoot 0 0
ltoes 0
24
root 7.22389 15.7669 25.019 22.6246 -83.8162 -4.68978
lowerback -22.0534 0.737062 -1.22896
upperback -7.16322 0.776946 -0.499281
thorax 4.47865 0.179223 0.344945
lowerneck -26.0083 1.94509 3.12441
upperneck 30.3025 -0.361326 4.03929
head 14.9416 0.711832 1.048
rclavicle 1.81888e-014 1.59028e-015
rhumerus 2.45641 -46.8879 -50.8592
rradius 128.948
rwrist -49.6541
rhand -60.8215 -23.6487
rfingers 7.12502
rthumb -32.9336 -50.6629
lclavicle 1.81888e-014 1.59028e-015
lhumerus -42.8126 -15.1256 91.3916
lradius 30.3231
lwrist 41.7306
lhand -26.9533 -4.03335
lfingers 7.12502
lthumb -0.374955 25.9461
rfemur -24.0686 22.0111 12.1387
rtibia 25.6262
rfoot -15.4728 -23.9083
rtoes -7.81696
lfemur 0 0 0
ltibia 0
lfoot 0 0
ltoes 0
25
root 7.2242 15.7672 25.0196 22.7425 -83.8151 -4.79426
lowerback -22.0413 0.72313 -1.23121
upperback -7.18622 0.754881 -0.461088
thorax 4.44732 0.168333 0.381447
lowerneck -26.0012 1.98287 3.14635
upperneck 30.3638 -0.292133 3.96527
head 14.9664 0.733022 1.02843
rclavicle 1.29459e-014 -7.15625e-015
rhumerus 2.16751 -46.3341 -50.6958
rradius 128.564
rwrist -47.5206
rhand -60.1013 -23.4124
rfingers 7.12502
rthumb -32.2482 -50.5682
lclavicle 1.29459e-014 -7.15625e-015
lhumerus -42.8765 -15.1846 91.5471
lradius 30.2861
lwrist 41.645
lhand -26.8655 -4.00443
lfingers 7.12502
lthumb -0.290176 25.9751
rfemur -24.08 22.0163 12.1415
rtibia 25.6135
rfoot -15.4615 -23.9129
rtoes -7.82356
lfemur 0 0 0
ltibia 0
lfoot 0 0
ltoes 0
26
root 7.22441 15.7676 25.0201 22.859 -83.8145 -4.90131
lowerback -22.0308 0.711934 -1.23642
upperback -7.20293 0.737584 -0.422476
thorax 4.42346 0.159951 0.421329
lowerneck -26.0034 2.02008 3.17424
upperneck 30.4226 -0.223893 3.88441
head 14.9922 0.753637 1.00489
rclavicle -1.02623e-014 1.0138e-014
rhumerus 1.75464 -45.4955 -50.4092
rradius 128.057
rwrist -44.1699
rhand -59.2712 -22.0424
rfingers 7.12502
rthumb -31.4577 -49.3556
lclavicle -1.02623e-014 1.0138e-014
lhumerus -42.9196 -15.2344 91.6934
lradius 30.2472
lwrist 41.5336
lhand -26.787 -3.9929
lfingers 7.12502
lthumb -0.214403 25.9867
rfemur -24.0861 22.0089 12.1489
rtibia 25.5998
rfoot -15.4492 -23.9052
rtoes -7.84127
lfemur 0 0 0
ltibia 0
lfoot 0 0
ltoes 0
27
root 7.22447 15.7678 25.0205 22.9733 -83.816 -5.00899
lowerback -22.0254 0.708919 -1.23133
upperback -7.21129 0.730261 -0.39621
thorax 4.41151 0.156438 0.44469
lowerneck -26.0211 2.05283 3.20953
upperneck 30.476 -0.168829 3.81177
head 15.0194 0.770967 0.980971
rclavicle -1.4064e-014 3.57812e-015
rhumerus 1.23201 -44.459 -50.0268
rradius 127.449
rwrist -39.8778
rhand -58.5008 -19.7676
rfingers 7.12502
rthumb -30.7235 -47.2214
lclavicle -1.4064e-014 3.57812e-015
lhumerus -42.9796 -15.3857 91.8677
lradius 30.2609
lwrist 41.5054
lhand -26.7508 -3.97881
lfingers 7.12502
lthumb -0.179367 26.0009
rfemur -24.0892 21.9865 12.1607
rtibia 25.5867
rfoot -15.4344 -23.8834
rtoes -7.87462
lfemur 0 0 0
ltibia 0
lfoot 0 0
ltoes 0
